<svg width="120" height="41" viewBox="0 0 120 41" fill="none" xmlns="http://www.w3.org/2000/svg">
<g clip-path="url(#clip0_57_819)">
<path d="M110.135 0.667122H9.53468C9.16798 0.667122 8.80568 0.667122 8.43995 0.669122C8.1338 0.671122 7.83009 0.676932 7.521 0.681822C6.84951 0.689724 6.17961 0.748798 5.5171 0.858532C4.85552 0.970655 4.21467 1.18204 3.61622 1.48553C3.0185 1.79159 2.47235 2.18929 1.99757 2.66419C1.5203 3.13776 1.12246 3.68514 0.81935 4.28528C0.5154 4.88423 0.304641 5.52606 0.19435 6.1886C0.0830109 6.85031 0.0230984 7.51964 0.01515 8.1906C0.00587 8.4972 0.00489 8.80482 0 9.11146V32.2257C0.00489 32.5362 0.00587 32.837 0.01515 33.1476C0.0231008 33.8185 0.0830134 34.4879 0.19435 35.1495C0.304336 35.8125 0.515108 36.4546 0.81935 37.0538C1.12233 37.652 1.52022 38.1972 1.99757 38.6681C2.47054 39.1451 3.01705 39.5431 3.61622 39.8468C4.21467 40.1511 4.85545 40.3638 5.5171 40.4776C6.17972 40.5865 6.84956 40.6456 7.521 40.6544C7.83009 40.6612 8.1338 40.6651 8.43995 40.6651C8.80567 40.6671 9.168 40.6671 9.53468 40.6671H110.135C110.494 40.6671 110.859 40.6671 111.219 40.6651C111.523 40.6651 111.836 40.6612 112.141 40.6544C112.811 40.646 113.479 40.5869 114.141 40.4776C114.804 40.363 115.448 40.1504 116.049 39.8468C116.647 39.5429 117.193 39.145 117.666 38.6681C118.142 38.1953 118.541 37.6506 118.848 37.0538C119.15 36.4542 119.358 35.8121 119.467 35.1495C119.578 34.4878 119.64 33.8186 119.652 33.1476C119.656 32.837 119.656 32.5362 119.656 32.2257C119.664 31.8624 119.664 31.5011 119.664 31.1319V10.2033C119.664 9.83704 119.664 9.47376 119.656 9.11146C119.656 8.80482 119.656 8.4972 119.652 8.19056C119.64 7.51954 119.578 6.85036 119.467 6.18856C119.358 5.5264 119.149 4.88463 118.848 4.28524C118.23 3.08232 117.252 2.10315 116.049 1.48544C115.448 1.18269 114.804 0.971363 114.141 0.858442C113.48 0.748225 112.811 0.68913 112.141 0.681682C111.836 0.676802 111.523 0.670942 111.219 0.668992C110.859 0.666992 110.494 0.666992 110.135 0.666992V0.667122Z" fill="#A6A6A6"/>
<path d="M8.44487 39.792C8.14019 39.792 7.84287 39.7881 7.54058 39.7813C6.91436 39.7731 6.2896 39.7186 5.67144 39.6182C5.09503 39.5189 4.53664 39.3343 4.0147 39.0703C3.49754 38.8085 3.02585 38.4653 2.6177 38.0537C2.20364 37.647 1.85891 37.1752 1.59719 36.6572C1.33258 36.1358 1.14945 35.5769 1.05419 35C0.951311 34.3801 0.895651 33.7533 0.887687 33.125C0.881347 32.9141 0.873047 32.2119 0.873047 32.2119V9.11133C0.873047 9.11133 0.881887 8.41992 0.887737 8.21679C0.895363 7.58947 0.950699 6.96365 1.05327 6.34472C1.14871 5.76624 1.33197 5.20574 1.59673 4.68262C1.85749 4.16494 2.2003 3.69285 2.61187 3.28467C3.02297 2.87261 3.49617 2.5276 4.01421 2.2622C4.53495 1.99909 5.09228 1.81572 5.66753 1.71826C6.28772 1.61683 6.91465 1.56199 7.54304 1.5542L8.44536 1.54199H111.214L112.127 1.55469C112.75 1.56209 113.371 1.61644 113.985 1.71728C114.566 1.81597 115.13 2.00061 115.656 2.26513C116.694 2.79998 117.539 3.64616 118.071 4.68506C118.332 5.20457 118.512 5.7605 118.607 6.33398C118.71 6.95798 118.768 7.58873 118.78 8.22119C118.783 8.50439 118.783 8.80859 118.783 9.11133C118.791 9.48633 118.791 9.84326 118.791 10.2031V31.1318C118.791 31.4951 118.791 31.8496 118.783 32.207C118.783 32.5322 118.783 32.8301 118.779 33.1367C118.768 33.7579 118.711 34.3774 118.608 34.9902C118.515 35.5713 118.333 36.1345 118.068 36.6602C117.805 37.1726 117.462 37.6403 117.053 38.0459C116.644 38.4597 116.172 38.8049 115.653 39.0684C115.128 39.3344 114.566 39.5197 113.985 39.6182C113.367 39.7192 112.742 39.7737 112.116 39.7813C111.823 39.7881 111.517 39.792 111.219 39.792L110.135 39.794L8.44487 39.792Z" fill="black"/>
<path d="M24.7689 20.9683C24.7796 20.1336 25.0013 19.3153 25.4134 18.5893C25.8254 17.8634 26.4143 17.2534 27.1254 16.8162C26.6737 16.1711 26.0777 15.6401 25.3849 15.2656C24.6921 14.891 23.9215 14.6832 23.1343 14.6586C21.455 14.4823 19.8271 15.6634 18.9714 15.6634C18.0991 15.6634 16.7816 14.6761 15.3629 14.7052C14.4452 14.7349 13.5509 15.0017 12.767 15.4798C11.9831 15.9579 11.3364 16.6308 10.89 17.4331C8.95595 20.7815 10.3985 25.7026 12.2511 28.4092C13.178 29.7345 14.2613 31.215 15.6788 31.1625C17.0658 31.105 17.5839 30.278 19.2582 30.278C20.9169 30.278 21.403 31.1625 22.8492 31.1291C24.3376 31.105 25.2753 29.7979 26.1697 28.46C26.8357 27.5156 27.3481 26.4719 27.6881 25.3675C26.8234 25.0017 26.0855 24.3896 25.5664 23.6073C25.0472 22.825 24.7699 21.9072 24.7689 20.9683Z" fill="white"/>
<path d="M22.0372 12.8783C22.8487 11.9041 23.2485 10.6519 23.1517 9.3877C21.9119 9.51792 20.7666 10.1105 19.9441 11.0473C19.542 11.505 19.234 12.0374 19.0378 12.6142C18.8415 13.1909 18.7609 13.8007 18.8004 14.4087C19.4206 14.4151 20.0341 14.2807 20.5947 14.0156C21.1554 13.7505 21.6486 13.3616 22.0372 12.8783Z" fill="white"/>
<path d="M42.3022 27.8067H37.5688L36.4321 31.1631H34.4272L38.9106 18.7451H40.9936L45.477 31.1631H43.438L42.3022 27.8067ZM38.0591 26.2578H41.8111L39.9615 20.8106H39.9097L38.0591 26.2578Z" fill="white"/>
<path d="M55.1597 26.6364C55.1597 29.4499 53.6538 31.2575 51.3814 31.2575C50.8057 31.2876 50.2332 31.155 49.7294 30.8749C49.2256 30.5948 48.8109 30.1784 48.5327 29.6735H48.4897V34.1579H46.6313V22.1091H48.4302V23.615H48.4644C48.7553 23.1125 49.1771 22.6983 49.6847 22.4165C50.1923 22.1346 50.7669 21.9956 51.3472 22.0144C53.645 22.0144 55.1597 23.8308 55.1597 26.6364ZM53.2495 26.6364C53.2495 24.8034 52.3023 23.5984 50.857 23.5984C49.437 23.5984 48.482 24.8288 48.482 26.6364C48.482 28.4607 49.437 29.6823 50.857 29.6823C52.3023 29.6823 53.2495 28.4861 53.2495 26.6364Z" fill="white"/>
<path d="M65.1245 26.6364C65.1245 29.4499 63.6187 31.2575 61.3462 31.2575C60.7706 31.2876 60.1981 31.155 59.6943 30.8749C59.1905 30.5948 58.7758 30.1784 58.4976 29.6735H58.4546V34.1579H56.5962V22.1091H58.395V23.6149H58.4292C58.7201 23.1125 59.1419 22.6983 59.6495 22.4164C60.1571 22.1346 60.7317 21.9956 61.312 22.0144C63.6099 22.0144 65.1245 23.8308 65.1245 26.6364ZM63.2144 26.6364C63.2144 24.8034 62.2671 23.5983 60.8218 23.5983C59.4019 23.5983 58.4468 24.8288 58.4468 26.6364C58.4468 28.4607 59.4019 29.6823 60.8218 29.6823C62.2671 29.6823 63.2144 28.486 63.2144 26.6364H63.2144Z" fill="white"/>
<path d="M71.7105 27.7032C71.8482 28.9346 73.0445 29.7432 74.6792 29.7432C76.2456 29.7432 77.3726 28.9346 77.3726 27.8242C77.3726 26.8604 76.6929 26.2832 75.0835 25.8877L73.4742 25.5C71.1939 24.9492 70.1353 23.8828 70.1353 22.1523C70.1353 20.0098 72.0025 18.5381 74.6538 18.5381C77.2778 18.5381 79.0767 20.0098 79.1372 22.1523H77.2612C77.1489 20.9131 76.1245 20.165 74.6274 20.165C73.1304 20.165 72.106 20.9219 72.106 22.0234C72.106 22.9014 72.7603 23.418 74.3608 23.8134L75.729 24.1494C78.2769 24.7519 79.3355 25.7754 79.3355 27.5918C79.3355 29.915 77.4849 31.3701 74.5415 31.3701C71.7876 31.3701 69.9282 29.9492 69.8081 27.7031L71.7105 27.7032Z" fill="white"/>
<path d="M83.3462 19.9668V22.1094H85.0679V23.5811H83.3462V28.5723C83.3462 29.3477 83.6909 29.709 84.4477 29.709C84.6521 29.7054 84.8562 29.6911 85.0591 29.666V31.1289C84.7188 31.1925 84.3729 31.2212 84.0268 31.2148C82.1938 31.2148 81.479 30.5263 81.479 28.7705V23.5811H80.1626V22.1094H81.479V19.9668H83.3462Z" fill="white"/>
<path d="M86.0649 26.6367C86.0649 23.7881 87.7427 21.998 90.3589 21.998C92.9839 21.998 94.6538 23.788 94.6538 26.6367C94.6538 29.4932 92.9927 31.2754 90.3589 31.2754C87.726 31.2754 86.0649 29.4932 86.0649 26.6367ZM92.7602 26.6367C92.7602 24.6826 91.8647 23.5293 90.3589 23.5293C88.853 23.5293 87.9585 24.6914 87.9585 26.6367C87.9585 28.5986 88.853 29.7432 90.3589 29.7432C91.8647 29.7432 92.7602 28.5986 92.7602 26.6367H92.7602Z" fill="white"/>
<path d="M96.186 22.109H97.9585V23.65H98.0015C98.1214 23.1687 98.4034 22.7434 98.8 22.4455C99.1966 22.1476 99.6836 21.9953 100.179 22.0143C100.393 22.0135 100.607 22.0368 100.816 22.0836V23.8219C100.546 23.7393 100.264 23.7013 99.981 23.7096C99.711 23.6986 99.4418 23.7462 99.192 23.8491C98.9421 23.952 98.7175 24.1077 98.5335 24.3056C98.3496 24.5035 98.2106 24.7389 98.1262 24.9956C98.0417 25.2522 98.0139 25.5241 98.0444 25.7926V31.1627H96.186L96.186 22.109Z" fill="white"/>
<path d="M109.384 28.5039C109.134 30.1475 107.534 31.2754 105.486 31.2754C102.852 31.2754 101.217 29.5107 101.217 26.6797C101.217 23.8398 102.861 21.998 105.408 21.998C107.913 21.998 109.488 23.7187 109.488 26.4639V27.1006H103.093V27.2129C103.064 27.5461 103.105 27.8818 103.216 28.1976C103.326 28.5134 103.502 28.8022 103.732 29.0448C103.963 29.2873 104.242 29.4781 104.552 29.6044C104.861 29.7307 105.195 29.7896 105.529 29.7773C105.968 29.8185 106.409 29.7168 106.785 29.4873C107.162 29.2579 107.455 28.913 107.62 28.5039L109.384 28.5039ZM103.102 25.8018H107.628C107.645 25.5022 107.6 25.2023 107.495 24.9211C107.39 24.6399 107.229 24.3834 107.02 24.1676C106.812 23.9519 106.561 23.7815 106.283 23.6673C106.006 23.5531 105.708 23.4975 105.408 23.5039C105.105 23.5021 104.805 23.5602 104.525 23.675C104.245 23.7897 103.99 23.9588 103.776 24.1724C103.562 24.3861 103.392 24.64 103.276 24.9197C103.16 25.1993 103.101 25.4991 103.102 25.8018V25.8018Z" fill="white"/>
<path d="M37.8262 9.3974C38.2158 9.36944 38.6067 9.4283 38.9709 9.56973C39.335 9.71116 39.6632 9.93164 39.9317 10.2153C40.2003 10.4989 40.4026 10.8386 40.524 11.2099C40.6454 11.5811 40.6829 11.9747 40.6338 12.3622C40.6338 14.2685 39.6035 15.3642 37.8262 15.3642H35.6709V9.3974H37.8262ZM36.5976 14.5204H37.7226C38.0011 14.537 38.2797 14.4914 38.5382 14.3868C38.7967 14.2822 39.0287 14.1212 39.2172 13.9156C39.4057 13.7101 39.546 13.4651 39.6278 13.1985C39.7097 12.9318 39.7311 12.6503 39.6904 12.3744C39.7281 12.0996 39.7046 11.8198 39.6215 11.5551C39.5383 11.2905 39.3977 11.0475 39.2096 10.8435C39.0216 10.6396 38.7907 10.4798 38.5337 10.3756C38.2766 10.2713 37.9996 10.2252 37.7226 10.2406H36.5976V14.5204Z" fill="white"/>
<path d="M41.6807 13.1108C41.6524 12.8149 41.6862 12.5163 41.7801 12.2342C41.8739 11.9522 42.0257 11.6928 42.2256 11.4728C42.4256 11.2529 42.6693 11.0771 42.9411 10.9568C43.213 10.8365 43.507 10.7744 43.8042 10.7744C44.1015 10.7744 44.3955 10.8365 44.6673 10.9568C44.9392 11.0771 45.1829 11.2529 45.3828 11.4728C45.5828 11.6928 45.7345 11.9522 45.8284 12.2342C45.9222 12.5163 45.9561 12.8149 45.9278 13.1108C45.9566 13.407 45.9232 13.706 45.8296 13.9885C45.736 14.271 45.5843 14.5309 45.3843 14.7513C45.1843 14.9717 44.9404 15.1478 44.6683 15.2684C44.3962 15.3889 44.1019 15.4512 43.8042 15.4512C43.5066 15.4512 43.2123 15.3889 42.9402 15.2684C42.668 15.1478 42.4241 14.9717 42.2241 14.7513C42.0242 14.5309 41.8725 14.271 41.7789 13.9885C41.6853 13.706 41.6519 13.407 41.6807 13.1108ZM45.0137 13.1108C45.0137 12.1347 44.5752 11.5639 43.8057 11.5639C43.0332 11.5639 42.5987 12.1347 42.5987 13.1108C42.5987 14.0947 43.0333 14.6611 43.8057 14.6611C44.5752 14.6611 45.0137 14.0908 45.0137 13.1108H45.0137Z" fill="white"/>
<path d="M51.5732 15.3643H50.6514L49.7207 12.0478H49.6504L48.7236 15.3643H47.8105L46.5693 10.8613H47.4707L48.2773 14.2973H48.3438L49.2695 10.8613H50.1221L51.0479 14.2973H51.1182L51.9209 10.8613H52.8096L51.5732 15.3643Z" fill="white"/>
<path d="M53.8535 10.8609H54.709V11.5762H54.7754C54.888 11.3193 55.0781 11.1039 55.3189 10.9601C55.5598 10.8163 55.8395 10.7512 56.1191 10.774C56.3382 10.7575 56.5582 10.7905 56.7628 10.8706C56.9674 10.9507 57.1514 11.0758 57.3011 11.2367C57.4508 11.3975 57.5623 11.59 57.6275 11.7998C57.6927 12.0096 57.7099 12.2314 57.6777 12.4488V15.3638H56.7891V12.6719C56.7891 11.9483 56.4746 11.5884 55.8174 11.5884C55.6686 11.5815 55.5201 11.6068 55.3821 11.6626C55.244 11.7185 55.1197 11.8035 55.0175 11.9119C54.9154 12.0203 54.8379 12.1495 54.7904 12.2906C54.7429 12.4317 54.7264 12.5815 54.7422 12.7295V15.3638H53.8535L53.8535 10.8609Z" fill="white"/>
<path d="M59.0938 9.10352H59.9824V15.3643H59.0938V9.10352Z" fill="white"/>
<path d="M61.2178 13.1109C61.1895 12.8149 61.2234 12.5164 61.3172 12.2343C61.4111 11.9522 61.5629 11.6928 61.7628 11.4729C61.9628 11.2529 62.2065 11.0771 62.4784 10.9568C62.7503 10.8365 63.0443 10.7744 63.3416 10.7744C63.6389 10.7744 63.9329 10.8365 64.2047 10.9568C64.4766 11.0771 64.7203 11.2529 64.9203 11.4729C65.1203 11.6928 65.272 11.9522 65.3659 12.2343C65.4598 12.5164 65.4936 12.8149 65.4653 13.1109C65.4942 13.4071 65.4607 13.7061 65.3671 13.9886C65.2734 14.2711 65.1217 14.531 64.9217 14.7514C64.7217 14.9718 64.4778 15.1479 64.2057 15.2684C63.9335 15.389 63.6392 15.4512 63.3416 15.4512C63.0439 15.4512 62.7496 15.389 62.4775 15.2684C62.2053 15.1479 61.9614 14.9718 61.7614 14.7514C61.5614 14.531 61.4097 14.2711 61.3161 13.9886C61.2225 13.7061 61.189 13.4071 61.2178 13.1109ZM64.5508 13.1109C64.5508 12.1348 64.1123 11.564 63.3428 11.564C62.5703 11.564 62.1358 12.1348 62.1358 13.1109C62.1358 14.0948 62.5704 14.6612 63.3428 14.6612C64.1123 14.6612 64.5508 14.0909 64.5508 13.1109H64.5508Z" fill="white"/>
<path d="M66.4009 14.0908C66.4009 13.2803 67.0044 12.813 68.0757 12.7466L69.2954 12.6763V12.2876C69.2954 11.812 68.981 11.5435 68.3735 11.5435C67.8774 11.5435 67.5337 11.7256 67.4351 12.0439H66.5747C66.6655 11.2705 67.3931 10.7744 68.4146 10.7744C69.5435 10.7744 70.1802 11.3364 70.1802 12.2876V15.3643H69.3247V14.7314H69.2544C69.1117 14.9584 68.9113 15.1435 68.6737 15.2677C68.436 15.3919 68.1697 15.4508 67.9019 15.4384C67.7128 15.4581 67.5218 15.4379 67.341 15.3792C67.1602 15.3205 66.9938 15.2246 66.8524 15.0976C66.711 14.9707 66.5977 14.8155 66.52 14.6421C66.4422 14.4687 66.4016 14.2809 66.4009 14.0908ZM69.2954 13.706V13.3296L68.1958 13.3999C67.5757 13.4414 67.2944 13.6523 67.2944 14.0493C67.2944 14.4546 67.646 14.6904 68.1294 14.6904C68.2711 14.7048 68.4142 14.6905 68.5502 14.6484C68.6862 14.6063 68.8123 14.5373 68.9211 14.4454C69.0299 14.3536 69.1191 14.2408 69.1834 14.1138C69.2477 13.9867 69.2858 13.8481 69.2954 13.706Z" fill="white"/>
<path d="M71.3481 13.1109C71.3481 11.688 72.0796 10.7866 73.2173 10.7866C73.4987 10.7737 73.778 10.8411 74.0225 10.981C74.267 11.1209 74.4667 11.3275 74.5981 11.5766H74.6646V9.10352H75.5532V15.3643H74.7017V14.6528H74.6314C74.4897 14.9003 74.2831 15.1044 74.0339 15.2428C73.7846 15.3813 73.5022 15.449 73.2173 15.4385C72.0718 15.4385 71.3481 14.5371 71.3481 13.1109ZM72.2661 13.1109C72.2661 14.0659 72.7163 14.6406 73.4693 14.6406C74.2183 14.6406 74.6812 14.0576 74.6812 13.1148C74.6812 12.1763 74.2134 11.585 73.4693 11.585C72.7212 11.585 72.2661 12.1636 72.2661 13.1109H72.2661Z" fill="white"/>
<path d="M79.23 13.1108C79.2017 12.8149 79.2356 12.5163 79.3294 12.2342C79.4232 11.9522 79.575 11.6928 79.7749 11.4728C79.9749 11.2529 80.2186 11.0771 80.4904 10.9568C80.7623 10.8365 81.0563 10.7744 81.3536 10.7744C81.6508 10.7744 81.9448 10.8365 82.2167 10.9568C82.4885 11.0771 82.7322 11.2529 82.9322 11.4728C83.1321 11.6928 83.2839 11.9522 83.3777 12.2342C83.4715 12.5163 83.5054 12.8149 83.4771 13.1108C83.5059 13.407 83.4725 13.706 83.3789 13.9885C83.2853 14.271 83.1336 14.5309 82.9336 14.7513C82.7336 14.9717 82.4897 15.1478 82.2176 15.2684C81.9455 15.3889 81.6512 15.4512 81.3536 15.4512C81.0559 15.4512 80.7616 15.3889 80.4895 15.2684C80.2173 15.1478 79.9735 14.9717 79.7735 14.7513C79.5735 14.5309 79.4218 14.271 79.3282 13.9885C79.2346 13.706 79.2012 13.407 79.23 13.1108ZM82.563 13.1108C82.563 12.1347 82.1245 11.5639 81.355 11.5639C80.5826 11.5639 80.148 12.1347 80.148 13.1108C80.148 14.0947 80.5826 14.6611 81.355 14.6611C82.1245 14.6611 82.563 14.0908 82.563 13.1108Z" fill="white"/>
<path d="M84.6694 10.8609H85.5249V11.5762H85.5913C85.704 11.3193 85.894 11.1039 86.1348 10.9601C86.3757 10.8163 86.6555 10.7512 86.9351 10.774C87.1542 10.7575 87.3742 10.7905 87.5788 10.8706C87.7834 10.9507 87.9673 11.0758 88.117 11.2367C88.2667 11.3975 88.3783 11.59 88.4435 11.7998C88.5087 12.0096 88.5258 12.2314 88.4937 12.4488V15.3638H87.605V12.6719C87.605 11.9483 87.2905 11.5884 86.6333 11.5884C86.4846 11.5815 86.336 11.6068 86.198 11.6626C86.0599 11.7185 85.9356 11.8035 85.8335 11.9119C85.7313 12.0203 85.6539 12.1495 85.6063 12.2906C85.5588 12.4317 85.5423 12.5815 85.5581 12.7295V15.3638H84.6694V10.8609Z" fill="white"/>
<path d="M93.5151 9.74023V10.8818H94.4907V11.6304H93.5151V13.9458C93.5151 14.4175 93.7095 14.624 94.1519 14.624C94.2651 14.6237 94.3783 14.6168 94.4907 14.6035V15.3437C94.3311 15.3723 94.1694 15.3875 94.0073 15.3892C93.019 15.3892 92.6255 15.0415 92.6255 14.1733V11.6303H91.9106V10.8818H92.6255V9.74023H93.5151Z" fill="white"/>
<path d="M95.7046 9.10352H96.5854V11.585H96.6558C96.7739 11.3256 96.9691 11.1091 97.2148 10.9647C97.4605 10.8204 97.7447 10.7553 98.0288 10.7783C98.2467 10.7665 98.4646 10.8029 98.6669 10.8849C98.8692 10.9669 99.0508 11.0926 99.199 11.2529C99.3471 11.4133 99.458 11.6043 99.5238 11.8125C99.5896 12.0206 99.6086 12.2407 99.5795 12.457V15.3643H98.69V12.6763C98.69 11.957 98.355 11.5928 97.7271 11.5928C97.5743 11.5802 97.4207 11.6012 97.2769 11.6543C97.1332 11.7073 97.0027 11.7912 96.8947 11.8999C96.7867 12.0086 96.7038 12.1397 96.6517 12.2838C96.5997 12.4279 96.5797 12.5817 96.5933 12.7344V15.3642H95.7046L95.7046 9.10352Z" fill="white"/>
<path d="M104.761 14.1485C104.641 14.56 104.379 14.916 104.022 15.1542C103.666 15.3923 103.236 15.4975 102.81 15.4512C102.513 15.4591 102.219 15.4022 101.946 15.2847C101.674 15.1672 101.43 14.9918 101.232 14.7706C101.034 14.5495 100.887 14.2879 100.8 14.0041C100.713 13.7203 100.689 13.421 100.73 13.127C100.691 12.8321 100.715 12.5322 100.801 12.2475C100.888 11.9629 101.034 11.7001 101.231 11.477C101.428 11.254 101.671 11.0758 101.942 10.9546C102.214 10.8334 102.509 10.772 102.806 10.7745C104.059 10.7745 104.815 11.6305 104.815 13.0445V13.3546H101.635V13.4044C101.621 13.5696 101.642 13.736 101.696 13.8927C101.75 14.0495 101.837 14.1932 101.95 14.3146C102.062 14.4361 102.2 14.5326 102.352 14.598C102.504 14.6634 102.669 14.6962 102.835 14.6944C103.047 14.7199 103.262 14.6816 103.453 14.5844C103.644 14.4872 103.802 14.3355 103.906 14.1485L104.761 14.1485ZM101.635 12.6973H103.91C103.921 12.5462 103.9 12.3944 103.849 12.2517C103.798 12.109 103.718 11.9785 103.614 11.8686C103.509 11.7588 103.383 11.672 103.243 11.6138C103.103 11.5556 102.953 11.5274 102.801 11.5308C102.648 11.5289 102.495 11.5578 102.353 11.6157C102.21 11.6737 102.081 11.7595 101.972 11.8682C101.864 11.9769 101.778 12.1063 101.72 12.2487C101.662 12.3911 101.633 12.5436 101.635 12.6973H101.635Z" fill="white"/>
</g>
<defs>
<clipPath id="clip0_57_819">
<rect width="119.664" height="40" fill="white" transform="translate(0 0.666992)"/>
</clipPath>
</defs>
</svg>
