<svg width="136" height="41" viewBox="0 0 136 41" fill="none" xmlns="http://www.w3.org/2000/svg">
<g clip-path="url(#clip0_57_820)">
<path d="M130.664 0.666992H5.66406C2.90264 0.666992 0.664062 2.90557 0.664062 5.66699V35.667C0.664062 38.4284 2.90264 40.667 5.66406 40.667H130.664C133.425 40.667 135.664 38.4284 135.664 35.667V5.66699C135.664 2.90557 133.425 0.666992 130.664 0.666992Z" fill="black"/>
<path d="M130.664 1.46699C131.778 1.46699 132.846 1.90949 133.634 2.69714C134.422 3.4848 134.864 4.55308 134.864 5.66699V35.667C134.864 36.7809 134.422 37.8492 133.634 38.6368C132.846 39.4245 131.778 39.867 130.664 39.867H5.66406C4.55015 39.867 3.48187 39.4245 2.69421 38.6368C1.90656 37.8492 1.46406 36.7809 1.46406 35.667V5.66699C1.46406 4.55308 1.90656 3.4848 2.69421 2.69714C3.48187 1.90949 4.55015 1.46699 5.66406 1.46699H130.664ZM130.664 0.666992H5.66406C4.33798 0.666992 3.06621 1.19378 2.12853 2.13146C1.19085 3.06914 0.664063 4.34091 0.664062 5.66699V35.667C0.664063 36.9931 1.19085 38.2648 2.12853 39.2025C3.06621 40.1402 4.33798 40.667 5.66406 40.667H130.664C131.99 40.667 133.262 40.1402 134.2 39.2025C135.137 38.2648 135.664 36.9931 135.664 35.667V5.66699C135.664 4.34091 135.137 3.06914 134.2 2.13146C133.262 1.19378 131.99 0.666992 130.664 0.666992Z" fill="#A6A6A6"/>
<path d="M45.0398 11.1528H47.1307V14.0539C46.817 14.1603 46.4937 14.2394 46.1609 14.2912C45.8309 14.343 45.4613 14.3689 45.0521 14.3689C44.4301 14.3689 43.905 14.2448 43.4767 13.9966C43.0512 13.7484 42.7279 13.3951 42.507 12.9368C42.286 12.4758 42.1755 11.9289 42.1755 11.296C42.1755 10.6768 42.2969 10.1367 42.5397 9.67565C42.7852 9.21465 43.1385 8.85729 43.5995 8.6036C44.0632 8.34718 44.6197 8.21897 45.2689 8.21897C45.6017 8.21897 45.9168 8.25034 46.2141 8.31309C46.5142 8.3731 46.7924 8.45903 47.0489 8.57087L46.7829 9.17646C46.5619 9.08098 46.3178 8.99914 46.0505 8.93095C45.7859 8.86275 45.5117 8.82865 45.228 8.82865C44.7397 8.82865 44.321 8.92958 43.9718 9.13145C43.6254 9.33331 43.3594 9.61837 43.1739 9.98663C42.9912 10.3549 42.8998 10.7914 42.8998 11.296C42.8998 11.7952 42.9803 12.2303 43.1412 12.6013C43.3021 12.9696 43.5531 13.256 43.8941 13.4606C44.2351 13.6652 44.6743 13.7675 45.2117 13.7675C45.4817 13.7675 45.7136 13.7524 45.9073 13.7224C46.1009 13.6897 46.2769 13.6515 46.4351 13.6079V11.7747H45.0398V11.1528ZM51.9099 14.2871H48.5792V8.3049H51.9099V8.91867H49.2748V10.8541H51.7585V11.4597H49.2748V13.6733H51.9099V14.2871ZM55.0729 14.2871H54.3732V8.91867H52.491V8.3049H56.9469V8.91867H55.0729V14.2871ZM60.028 14.2871V8.3049H60.7237V14.2871H60.028ZM64.2058 14.2871H63.5061V8.91867H61.6238V8.3049H66.0798V8.91867H64.2058V14.2871ZM74.3493 11.2878C74.3493 11.7488 74.2907 12.1689 74.1734 12.5481C74.0561 12.9245 73.8815 13.2492 73.6496 13.5219C73.4205 13.792 73.1354 14.0007 72.7945 14.148C72.4535 14.2953 72.0579 14.3689 71.6078 14.3689C71.1441 14.3689 70.739 14.2953 70.3926 14.148C70.0489 14.0007 69.7624 13.7906 69.5333 13.5179C69.3069 13.2451 69.1364 12.9191 69.0218 12.5399C68.91 12.1607 68.8541 11.7406 68.8541 11.2796C68.8541 10.6686 68.955 10.1326 69.1568 9.67156C69.3587 9.21055 69.6642 8.85184 70.0734 8.59542C70.4853 8.339 71.0009 8.21079 71.6201 8.21079C72.2121 8.21079 72.7099 8.33764 73.1136 8.59133C73.5201 8.84502 73.827 9.20237 74.0343 9.66338C74.2443 10.1217 74.3493 10.6631 74.3493 11.2878ZM69.5865 11.2878C69.5865 11.7952 69.6588 12.2344 69.8034 12.6054C69.9479 12.9764 70.1689 13.2628 70.4662 13.4647C70.7663 13.6665 71.1468 13.7675 71.6078 13.7675C72.0716 13.7675 72.4507 13.6665 72.7454 13.4647C73.0427 13.2628 73.2623 12.9764 73.4041 12.6054C73.546 12.2344 73.6169 11.7952 73.6169 11.2878C73.6169 10.5158 73.4546 9.91298 73.13 9.47925C72.8081 9.04279 72.3048 8.82456 71.6201 8.82456C71.1564 8.82456 70.7745 8.92413 70.4744 9.12326C70.1743 9.3224 69.9507 9.60609 69.8034 9.97436C69.6588 10.3399 69.5865 10.7777 69.5865 11.2878ZM80.3602 14.2871H79.5582L76.297 9.26238H76.2643C76.2725 9.39605 76.282 9.54881 76.2929 9.72066C76.3039 9.88979 76.312 10.0712 76.3175 10.2649C76.3257 10.4558 76.3298 10.6509 76.3298 10.85V14.2871H75.6833V8.3049H76.4812L79.73 13.3133H79.7587C79.7532 13.2178 79.7464 13.0828 79.7382 12.9082C79.73 12.7309 79.7219 12.5413 79.7137 12.3394C79.7082 12.1348 79.7055 11.9452 79.7055 11.7707V8.3049H80.3602V14.2871Z" fill="white"/>
<path d="M45.0398 11.1528V11.0528H44.9398V11.1528H45.0398ZM47.1307 11.1528H47.2307V11.0528H47.1307V11.1528ZM47.1307 14.0539L47.1628 14.1486L47.2307 14.1256V14.0539H47.1307ZM46.1609 14.2912L46.1456 14.1924L46.1454 14.1924L46.1609 14.2912ZM43.4767 13.9966L43.4263 14.083L43.4266 14.0831L43.4767 13.9966ZM42.507 12.9368L42.4168 12.98L42.4169 12.9802L42.507 12.9368ZM42.5397 9.67565L42.4514 9.62865L42.4512 9.62906L42.5397 9.67565ZM43.5995 8.6036L43.6477 8.69121L43.6479 8.69112L43.5995 8.6036ZM46.2141 8.31309L46.1935 8.41094L46.1945 8.41114L46.2141 8.31309ZM47.0489 8.57087L47.1404 8.61108L47.1807 8.51929L47.0888 8.47921L47.0489 8.57087ZM46.7829 9.17646L46.7432 9.26825L46.8345 9.30768L46.8745 9.21667L46.7829 9.17646ZM46.0505 8.93095L46.0255 9.02778L46.0258 9.02784L46.0505 8.93095ZM43.9718 9.13145L43.9218 9.04487L43.9215 9.04504L43.9718 9.13145ZM43.1739 9.98663L43.0846 9.94164L43.0844 9.94218L43.1739 9.98663ZM43.1412 12.6013L43.0495 12.6411L43.0496 12.6413L43.1412 12.6013ZM43.8941 13.4606L43.8426 13.5463L43.8941 13.4606ZM45.9073 13.7224L45.9226 13.8213L45.9239 13.821L45.9073 13.7224ZM46.4351 13.6079L46.4617 13.7043L46.5351 13.684V13.6079H46.4351ZM46.4351 11.7747H46.5351V11.6747H46.4351V11.7747ZM45.0398 11.7747H44.9398V11.8747H45.0398V11.7747ZM45.0398 11.2528H47.1307V11.0528H45.0398V11.2528ZM47.0307 11.1528V14.0539H47.2307V11.1528H47.0307ZM47.0986 13.9592C46.7904 14.0637 46.4728 14.1414 46.1456 14.1924L46.1763 14.39C46.5147 14.3373 46.8436 14.2568 47.1628 14.1486L47.0986 13.9592ZM46.1454 14.1924C45.8215 14.2433 45.4572 14.2689 45.0521 14.2689V14.4689C45.4653 14.4689 45.8403 14.4428 46.1765 14.39L46.1454 14.1924ZM45.0521 14.2689C44.4433 14.2689 43.9365 14.1475 43.5269 13.9101L43.4266 14.0831C43.8735 14.3422 44.417 14.4689 45.0521 14.4689V14.2689ZM43.5271 13.9102C43.1194 13.6724 42.8097 13.3343 42.597 12.8934L42.4169 12.9802C42.6462 13.4559 42.983 13.8243 43.4263 14.083L43.5271 13.9102ZM42.5971 12.8936C42.384 12.4489 42.2755 11.9174 42.2755 11.296H42.0755C42.0755 11.9404 42.188 12.5027 42.4168 12.98L42.5971 12.8936ZM42.2755 11.296C42.2755 10.69 42.3943 10.1664 42.6282 9.72225L42.4512 9.62906C42.1996 10.1069 42.0755 10.6636 42.0755 11.296H42.2755ZM42.628 9.72266C42.8643 9.27892 43.2036 8.93562 43.6477 8.69121L43.5513 8.51599C43.0734 8.77897 42.7061 9.15037 42.4514 9.62865L42.628 9.72266ZM43.6479 8.69112C44.0938 8.44454 44.6329 8.31897 45.2689 8.31897V8.11897C44.6066 8.11897 44.0326 8.24983 43.5511 8.51609L43.6479 8.69112ZM45.2689 8.31897C45.5954 8.31897 45.9036 8.34975 46.1935 8.41093L46.2348 8.21524C45.9301 8.15094 45.608 8.11897 45.2689 8.11897V8.31897ZM46.1945 8.41114C46.4882 8.46989 46.7596 8.55379 47.0089 8.66253L47.0888 8.47921C46.8253 8.36426 46.5402 8.27631 46.2338 8.21503L46.1945 8.41114ZM46.9573 8.53066L46.6913 9.13624L46.8745 9.21667L47.1404 8.61108L46.9573 8.53066ZM46.8226 9.08466C46.5961 8.98682 46.3469 8.90337 46.0752 8.83405L46.0258 9.02784C46.2887 9.09492 46.5278 9.17514 46.7432 9.26825L46.8226 9.08466ZM46.0754 8.83411C45.8024 8.76373 45.5198 8.72865 45.228 8.72865V8.92865C45.5036 8.92865 45.7694 8.96177 46.0255 9.02778L46.0754 8.83411ZM45.228 8.72865C44.7259 8.72865 44.2891 8.83253 43.9218 9.04487L44.0219 9.21802C44.3529 9.02663 44.7536 8.92865 45.228 8.92865V8.72865ZM43.9215 9.04504C43.5578 9.25694 43.2786 9.55662 43.0846 9.94165L43.2632 10.0316C43.4403 9.68012 43.693 9.40968 44.0222 9.21785L43.9215 9.04504ZM43.0844 9.94218C42.8934 10.327 42.7998 10.7794 42.7998 11.296H42.9998C42.9998 10.8033 43.089 10.3827 43.2635 10.0311L43.0844 9.94218ZM42.7998 11.296C42.7998 11.8058 42.882 12.255 43.0495 12.6411L43.2329 12.5615C43.0786 12.2056 42.9998 11.7846 42.9998 11.296H42.7998ZM43.0496 12.6413C43.2187 13.0284 43.4836 13.3309 43.8426 13.5463L43.9455 13.3748C43.6226 13.181 43.3856 12.9107 43.2328 12.5612L43.0496 12.6413ZM43.8426 13.5463C44.2037 13.763 44.6623 13.8675 45.2117 13.8675V13.6675C44.6862 13.6675 44.2664 13.5674 43.9455 13.3748L43.8426 13.5463ZM45.2117 13.8675C45.4851 13.8675 45.7223 13.8523 45.9226 13.8213L45.8919 13.6236C45.7048 13.6526 45.4783 13.6675 45.2117 13.6675V13.8675ZM45.9239 13.821C46.1203 13.7878 46.2996 13.749 46.4617 13.7043L46.4085 13.5115C46.2541 13.5541 46.0816 13.5916 45.8906 13.6238L45.9239 13.821ZM46.5351 13.6079V11.7747H46.3351V13.6079H46.5351ZM46.4351 11.6747H45.0398V11.8747H46.4351V11.6747ZM45.1398 11.7747V11.1528H44.9398V11.7747H45.1398ZM51.9099 14.2871V14.3871H52.0099V14.2871H51.9099ZM48.5792 14.2871H48.4792V14.3871H48.5792V14.2871ZM48.5792 8.3049V8.2049H48.4792V8.3049H48.5792ZM51.9099 8.3049H52.0099V8.2049H51.9099V8.3049ZM51.9099 8.91867V9.01867H52.0099V8.91867H51.9099ZM49.2748 8.91867V8.81867H49.1748V8.91867H49.2748ZM49.2748 10.8541H49.1748V10.9541H49.2748V10.8541ZM51.7585 10.8541H51.8585V10.7541H51.7585V10.8541ZM51.7585 11.4597V11.5597H51.8585V11.4597H51.7585ZM49.2748 11.4597V11.3597H49.1748V11.4597H49.2748ZM49.2748 13.6733H49.1748V13.7733H49.2748V13.6733ZM51.9099 13.6733H52.0099V13.5733H51.9099V13.6733ZM51.9099 14.1871H48.5792V14.3871H51.9099V14.1871ZM48.6792 14.2871V8.3049H48.4792V14.2871H48.6792ZM48.5792 8.4049H51.9099V8.2049H48.5792V8.4049ZM51.8099 8.3049V8.91867H52.0099V8.3049H51.8099ZM51.9099 8.81867H49.2748V9.01867H51.9099V8.81867ZM49.1748 8.91867V10.8541H49.3748V8.91867H49.1748ZM49.2748 10.9541H51.7585V10.7541H49.2748V10.9541ZM51.6585 10.8541V11.4597H51.8585V10.8541H51.6585ZM51.7585 11.3597H49.2748V11.5597H51.7585V11.3597ZM49.1748 11.4597V13.6733H49.3748V11.4597H49.1748ZM49.2748 13.7733H51.9099V13.5733H49.2748V13.7733ZM51.8099 13.6733V14.2871H52.0099V13.6733H51.8099ZM55.0729 14.2871V14.3871H55.1729V14.2871H55.0729ZM54.3732 14.2871H54.2732V14.3871H54.3732V14.2871ZM54.3732 8.91867H54.4732V8.81867H54.3732V8.91867ZM52.491 8.91867H52.391V9.01867H52.491V8.91867ZM52.491 8.3049V8.2049H52.391V8.3049H52.491ZM56.9469 8.3049H57.0469V8.2049H56.9469V8.3049ZM56.9469 8.91867V9.01867H57.0469V8.91867H56.9469ZM55.0729 8.91867V8.81867H54.9729V8.91867H55.0729ZM55.0729 14.1871H54.3732V14.3871H55.0729V14.1871ZM54.4732 14.2871V8.91867H54.2732V14.2871H54.4732ZM54.3732 8.81867H52.491V9.01867H54.3732V8.81867ZM52.591 8.91867V8.3049H52.391V8.91867H52.591ZM52.491 8.4049H56.9469V8.2049H52.491V8.4049ZM56.8469 8.3049V8.91867H57.0469V8.3049H56.8469ZM56.9469 8.81867H55.0729V9.01867H56.9469V8.81867ZM54.9729 8.91867V14.2871H55.1729V8.91867H54.9729ZM60.028 14.2871H59.928V14.3871H60.028V14.2871ZM60.028 8.3049V8.2049H59.928V8.3049H60.028ZM60.7237 8.3049H60.8237V8.2049H60.7237V8.3049ZM60.7237 14.2871V14.3871H60.8237V14.2871H60.7237ZM60.128 14.2871V8.3049H59.928V14.2871H60.128ZM60.028 8.4049H60.7237V8.2049H60.028V8.4049ZM60.6237 8.3049V14.2871H60.8237V8.3049H60.6237ZM60.7237 14.1871H60.028V14.3871H60.7237V14.1871ZM64.2058 14.2871V14.3871H64.3058V14.2871H64.2058ZM63.5061 14.2871H63.4061V14.3871H63.5061V14.2871ZM63.5061 8.91867H63.6061V8.81867H63.5061V8.91867ZM61.6238 8.91867H61.5238V9.01867H61.6238V8.91867ZM61.6238 8.3049V8.2049H61.5238V8.3049H61.6238ZM66.0798 8.3049H66.1798V8.2049H66.0798V8.3049ZM66.0798 8.91867V9.01867H66.1798V8.91867H66.0798ZM64.2058 8.91867V8.81867H64.1058V8.91867H64.2058ZM64.2058 14.1871H63.5061V14.3871H64.2058V14.1871ZM63.6061 14.2871V8.91867H63.4061V14.2871H63.6061ZM63.5061 8.81867H61.6238V9.01867H63.5061V8.81867ZM61.7238 8.91867V8.3049H61.5238V8.91867H61.7238ZM61.6238 8.4049H66.0798V8.2049H61.6238V8.4049ZM65.9798 8.3049V8.91867H66.1798V8.3049H65.9798ZM66.0798 8.81867H64.2058V9.01867H66.0798V8.81867ZM64.1058 8.91867V14.2871H64.3058V8.91867H64.1058ZM74.1734 12.5481L74.2689 12.5778L74.2689 12.5776L74.1734 12.5481ZM73.6496 13.5219L73.5734 13.4572L73.5734 13.4572L73.6496 13.5219ZM72.7945 14.148L72.8341 14.2398L72.7945 14.148ZM70.3926 14.148L70.3532 14.2399L70.3534 14.24L70.3926 14.148ZM69.5333 13.5179L69.4563 13.5817L69.4567 13.5822L69.5333 13.5179ZM69.0218 12.5399L68.9259 12.5682L68.9261 12.5688L69.0218 12.5399ZM70.0734 8.59542L70.0206 8.51053L70.0203 8.51068L70.0734 8.59542ZM73.1136 8.59133L73.0604 8.676L73.0607 8.67616L73.1136 8.59133ZM74.0343 9.66338L73.9431 9.70439L73.9434 9.70504L74.0343 9.66338ZM70.4662 13.4647L70.4101 13.5474L70.4104 13.5476L70.4662 13.4647ZM72.7454 13.4647L72.6892 13.3819L72.6888 13.3822L72.7454 13.4647ZM73.13 9.47925L73.0495 9.5386L73.0499 9.53917L73.13 9.47925ZM70.4744 9.12326L70.4191 9.03994L70.4744 9.12326ZM69.8034 9.97436L69.7105 9.93722L69.7104 9.93758L69.8034 9.97436ZM74.2493 11.2878C74.2493 11.7404 74.1918 12.1503 74.0779 12.5185L74.2689 12.5776C74.3896 12.1875 74.4493 11.7573 74.4493 11.2878H74.2493ZM74.0779 12.5183C73.9642 12.8833 73.7958 13.1956 73.5734 13.4572L73.7258 13.5867C73.9673 13.3027 74.148 12.9658 74.2689 12.5778L74.0779 12.5183ZM73.5734 13.4572C73.3547 13.715 73.0824 13.9147 72.7548 14.0562L72.8341 14.2398C73.1885 14.0867 73.4863 13.869 73.7259 13.5866L73.5734 13.4572ZM72.7548 14.0562C72.4287 14.1971 72.0471 14.2689 71.6078 14.2689V14.4689C72.0687 14.4689 72.4783 14.3935 72.8341 14.2398L72.7548 14.0562ZM71.6078 14.2689C71.1545 14.2689 70.7633 14.1969 70.4317 14.056L70.3534 14.24C70.7148 14.3936 71.1337 14.4689 71.6078 14.4689V14.2689ZM70.432 14.0561C70.1019 13.9146 69.8284 13.7137 69.6099 13.4535L69.4567 13.5822C69.6964 13.8675 69.9958 14.0867 70.3532 14.2399L70.432 14.0561ZM69.6102 13.454C69.3933 13.1926 69.2287 12.8789 69.1175 12.511L68.9261 12.5688C69.0441 12.9593 69.2205 13.2975 69.4563 13.5817L69.6102 13.454ZM69.1177 12.5116C69.009 12.143 68.9541 11.7326 68.9541 11.2796H68.7541C68.7541 11.7487 68.8109 12.1785 68.9259 12.5682L69.1177 12.5116ZM68.9541 11.2796C68.9541 10.6795 69.0532 10.1576 69.2484 9.71167L69.0652 9.63145C68.8568 10.1075 68.7541 10.6577 68.7541 11.2796H68.9541ZM69.2484 9.71167C69.4426 9.26825 69.7351 8.92544 70.1265 8.68016L70.0203 8.51068C69.5934 8.77824 69.2748 9.15286 69.0652 9.63145L69.2484 9.71167ZM70.1263 8.68031C70.5185 8.43615 71.0145 8.31079 71.6201 8.31079V8.11079C70.9873 8.11079 70.4522 8.24185 70.0206 8.51053L70.1263 8.68031ZM71.6201 8.31079C72.1978 8.31079 72.6761 8.43449 73.0604 8.676L73.1668 8.50666C72.7437 8.24078 72.2263 8.11079 71.6201 8.11079V8.31079ZM73.0607 8.67616C73.4494 8.91877 73.7434 9.26041 73.9431 9.70439L74.1255 9.62236C73.9105 9.14433 73.5908 8.77127 73.1666 8.5065L73.0607 8.67616ZM73.9434 9.70504C74.1462 10.1475 74.2493 10.6742 74.2493 11.2878H74.4493C74.4493 10.6521 74.3425 10.0958 74.1252 9.62171L73.9434 9.70504ZM69.4865 11.2878C69.4865 11.8044 69.56 12.2564 69.7102 12.6417L69.8965 12.5691C69.7575 12.2123 69.6865 11.786 69.6865 11.2878H69.4865ZM69.7102 12.6417C69.8613 13.0294 70.0942 13.3329 70.4101 13.5474L70.5224 13.3819C70.2436 13.1926 70.0346 12.9233 69.8965 12.5691L69.7102 12.6417ZM70.4104 13.5476C70.731 13.7633 71.1324 13.8675 71.6078 13.8675V13.6675C71.1613 13.6675 70.8016 13.5698 70.522 13.3817L70.4104 13.5476ZM71.6078 13.8675C72.0858 13.8675 72.4863 13.7634 72.8019 13.5472L72.6888 13.3822C72.4152 13.5697 72.0574 13.6675 71.6078 13.6675V13.8675ZM72.8015 13.5474C73.1176 13.3328 73.3492 13.0291 73.4975 12.6411L73.3107 12.5697C73.1754 12.9236 72.9678 13.1928 72.6892 13.3819L72.8015 13.5474ZM73.4975 12.6411C73.6448 12.256 73.7169 11.8042 73.7169 11.2878H73.5169C73.5169 11.7862 73.4472 12.2128 73.3107 12.5697L73.4975 12.6411ZM73.7169 11.2878C73.7169 10.5031 73.5521 9.87633 73.21 9.41933L73.0499 9.53917C73.3571 9.94963 73.5169 10.5285 73.5169 11.2878H73.7169ZM73.2105 9.41989C72.8648 8.95125 72.3273 8.72456 71.6201 8.72456V8.92456C72.2823 8.92456 72.7513 9.13433 73.0495 9.5386L73.2105 9.41989ZM71.6201 8.72456C71.1423 8.72456 70.7397 8.82719 70.4191 9.03994L70.5297 9.20658C70.8093 9.02106 71.1704 8.92456 71.6201 8.92456V8.72456ZM70.4191 9.03994C70.1004 9.25143 69.8645 9.5521 69.7105 9.93722L69.8962 10.0115C70.0368 9.66009 70.2483 9.39336 70.5297 9.20658L70.4191 9.03994ZM69.7104 9.93758C69.56 10.3177 69.4865 10.7687 69.4865 11.2878H69.6865C69.6865 10.7867 69.7575 10.362 69.8963 10.0111L69.7104 9.93758ZM80.3602 14.2871V14.3871H80.4602V14.2871H80.3602ZM79.5582 14.2871L79.4743 14.3416L79.5039 14.3871H79.5582V14.2871ZM76.297 9.26238L76.3809 9.20794L76.3513 9.16238H76.297V9.26238ZM76.2643 9.26238V9.16238H76.158L76.1645 9.26849L76.2643 9.26238ZM76.2929 9.72066L76.1931 9.727L76.1931 9.7271L76.2929 9.72066ZM76.3175 10.2649L76.2175 10.2677L76.2176 10.2692L76.3175 10.2649ZM76.3298 14.2871V14.3871H76.4298V14.2871H76.3298ZM75.6833 14.2871H75.5833V14.3871H75.6833V14.2871ZM75.6833 8.3049V8.2049H75.5833V8.3049H75.6833ZM76.4812 8.3049L76.5651 8.25048L76.5355 8.2049H76.4812V8.3049ZM79.73 13.3133L79.6462 13.3677L79.6757 13.4133H79.73V13.3133ZM79.7587 13.3133V13.4133H79.8646L79.8585 13.3076L79.7587 13.3133ZM79.7382 12.9082L79.6383 12.9128L79.6383 12.9129L79.7382 12.9082ZM79.7137 12.3394L79.6137 12.3421L79.6138 12.3435L79.7137 12.3394ZM79.7055 8.3049V8.2049H79.6055V8.3049H79.7055ZM80.3602 8.3049H80.4602V8.2049H80.3602V8.3049ZM80.3602 14.1871H79.5582V14.3871H80.3602V14.1871ZM79.6421 14.2327L76.3809 9.20794L76.2131 9.31682L79.4743 14.3416L79.6421 14.2327ZM76.297 9.16238H76.2643V9.36238H76.297V9.16238ZM76.1645 9.26849C76.1727 9.40225 76.1822 9.55509 76.1931 9.727L76.3927 9.71433C76.3818 9.54253 76.3723 9.38984 76.3641 9.25627L76.1645 9.26849ZM76.1931 9.7271C76.204 9.89487 76.2121 10.0751 76.2175 10.2677L76.4175 10.2621C76.412 10.0673 76.4037 9.88472 76.3927 9.71423L76.1931 9.7271ZM76.2176 10.2692C76.2257 10.4586 76.2298 10.6522 76.2298 10.85H76.4298C76.4298 10.6495 76.4256 10.453 76.4174 10.2606L76.2176 10.2692ZM76.2298 10.85V14.2871H76.4298V10.85H76.2298ZM76.3298 14.1871H75.6833V14.3871H76.3298V14.1871ZM75.7833 14.2871V8.3049H75.5833V14.2871H75.7833ZM75.6833 8.4049H76.4812V8.2049H75.6833V8.4049ZM76.3973 8.35932L79.6462 13.3677L79.8139 13.2588L76.5651 8.25048L76.3973 8.35932ZM79.73 13.4133H79.7587V13.2133H79.73V13.4133ZM79.8585 13.3076C79.8531 13.2126 79.8463 13.078 79.8381 12.9035L79.6383 12.9129C79.6465 13.0876 79.6534 13.223 79.6589 13.319L79.8585 13.3076ZM79.8381 12.9036C79.83 12.7265 79.8218 12.5371 79.8136 12.3354L79.6138 12.3435C79.622 12.5455 79.6301 12.7353 79.6383 12.9128L79.8381 12.9036ZM79.8136 12.3367C79.8082 12.1329 79.8055 11.9442 79.8055 11.7707H79.6055C79.6055 11.9463 79.6082 12.1367 79.6137 12.3421L79.8136 12.3367ZM79.8055 11.7707V8.3049H79.6055V11.7707H79.8055ZM79.7055 8.4049H80.3602V8.2049H79.7055V8.4049ZM80.2602 8.3049V14.2871H80.4602V8.3049H80.2602Z" fill="white"/>
<path d="M68.804 22.4169C67.9615 22.4189 67.1385 22.6707 66.439 23.1404C65.7396 23.6102 65.1951 24.2768 64.8745 25.0559C64.5539 25.8351 64.4716 26.6918 64.6379 27.5178C64.8042 28.3438 65.2117 29.1019 65.8089 29.6962C66.406 30.2906 67.166 30.6946 67.9928 30.857C68.8195 31.0194 69.6759 30.933 70.4535 30.6088C71.2312 30.2845 71.8952 29.737 72.3617 29.0353C72.8281 28.3337 73.076 27.5095 73.074 26.6669C73.0822 26.1049 72.9772 25.5469 72.7652 25.0263C72.5533 24.5056 72.2387 24.033 71.8403 23.6364C71.4419 23.2399 70.9678 22.9275 70.4461 22.718C69.9245 22.5085 69.3661 22.4061 68.804 22.4169ZM68.804 29.2469C68.2876 29.283 67.7723 29.163 67.325 28.9023C66.8777 28.6416 66.5192 28.2525 66.2961 27.7854C66.0729 27.3182 65.9954 26.7948 66.0737 26.2831C66.152 25.7713 66.3824 25.295 66.735 24.916C67.0876 24.5369 67.5461 24.2727 68.0508 24.1577C68.5556 24.0427 69.0832 24.0821 69.5652 24.271C70.0472 24.4598 70.4613 24.7893 70.7535 25.2166C71.0458 25.6439 71.2028 26.1492 71.204 26.6669C71.2201 26.9949 71.1704 27.3228 71.0578 27.6313C70.9451 27.9398 70.7719 28.2226 70.5482 28.4631C70.3245 28.7035 70.0549 28.8968 69.7554 29.0314C69.4558 29.166 69.1324 29.2393 68.804 29.2469ZM59.484 22.4169C58.6415 22.4189 57.8185 22.6707 57.119 23.1404C56.4196 23.6102 55.8751 24.2768 55.5545 25.0559C55.2339 25.8351 55.1516 26.6918 55.3179 27.5178C55.4842 28.3438 55.8917 29.1019 56.4889 29.6962C57.086 30.2906 57.846 30.6946 58.6728 30.857C59.4995 31.0194 60.3559 30.933 61.1335 30.6088C61.9112 30.2845 62.5752 29.737 63.0417 29.0353C63.5081 28.3337 63.756 27.5095 63.754 26.6669C63.7622 26.1049 63.6572 25.5469 63.4452 25.0263C63.2333 24.5056 62.9187 24.033 62.5203 23.6364C62.1219 23.2399 61.6478 22.9275 61.1261 22.718C60.6045 22.5085 60.0461 22.4061 59.484 22.4169ZM59.484 29.2469C58.9676 29.283 58.4523 29.163 58.005 28.9023C57.5577 28.6416 57.1992 28.2525 56.9761 27.7854C56.7529 27.3182 56.6754 26.7948 56.7537 26.2831C56.832 25.7713 57.0624 25.295 57.415 24.916C57.7676 24.5369 58.2261 24.2727 58.7308 24.1577C59.2356 24.0427 59.7632 24.0821 60.2452 24.271C60.7272 24.4598 61.1413 24.7893 61.4335 25.2166C61.7258 25.6439 61.8828 26.1492 61.884 26.6669C61.9001 26.9949 61.8504 27.3228 61.7378 27.6313C61.6251 27.9398 61.4519 28.2226 61.2282 28.4631C61.0045 28.7035 60.7349 28.8968 60.4354 29.0314C60.1358 29.166 59.8124 29.2393 59.484 29.2469ZM48.404 23.7269V25.5269H52.724C52.6563 26.3747 52.3039 27.1747 51.724 27.7969C51.2907 28.2384 50.7695 28.5841 50.1941 28.8114C49.6188 29.0388 49.0021 29.1429 48.384 29.1169C47.111 29.1169 45.8901 28.6112 44.9899 27.711C44.0898 26.8109 43.584 25.59 43.584 24.3169C43.584 23.0439 44.0898 21.823 44.9899 20.9228C45.8901 20.0226 47.111 19.5169 48.384 19.5169C49.6045 19.4988 50.7829 19.9622 51.664 20.8069L52.934 19.5369C52.338 18.9474 51.6304 18.4828 50.8525 18.1703C50.0746 17.8578 49.2422 17.7036 48.404 17.7169C47.515 17.6823 46.6282 17.8275 45.7967 18.1439C44.9651 18.4602 44.206 18.9412 43.5648 19.5579C42.9236 20.1747 42.4135 20.9145 42.065 21.7331C41.7166 22.5517 41.537 23.4322 41.537 24.3219C41.537 25.2116 41.7166 26.0921 42.065 26.9107C42.4135 27.7293 42.9236 28.4692 43.5648 29.0859C44.206 29.7026 44.9651 30.1836 45.7967 30.4999C46.6282 30.8163 47.515 30.9615 48.404 30.9269C49.2595 30.9611 50.1124 30.8139 50.9069 30.4951C51.7015 30.1762 52.4195 29.6929 53.014 29.0769C54.0642 27.9233 54.6237 26.4061 54.574 24.8469C54.5776 24.4716 54.5475 24.0968 54.484 23.7269H48.404ZM93.714 25.1269C93.4532 24.3597 92.9656 23.6897 92.3155 23.2058C91.6655 22.7218 90.8839 22.4467 90.074 22.4169C89.527 22.4158 88.9856 22.527 88.4833 22.7434C87.9809 22.9599 87.5283 23.2771 87.1534 23.6754C86.7785 24.0738 86.4893 24.5448 86.3036 25.0593C86.118 25.5738 86.0399 26.121 86.074 26.6669C86.0655 27.5798 86.3525 28.4709 86.8922 29.2072C87.4318 29.9435 88.1952 30.4854 89.0683 30.7521C89.9414 31.0187 90.8773 30.9958 91.7363 30.6866C92.5952 30.3775 93.3311 29.7988 93.834 29.0369L92.384 28.0369C92.1679 28.3972 91.8613 28.6947 91.4947 28.8999C91.1281 29.1052 90.7142 29.211 90.294 29.2069C89.8606 29.2248 89.4319 29.1112 89.0643 28.8809C88.6966 28.6507 88.4072 28.3147 88.234 27.9169L93.924 25.5669L93.714 25.1269ZM87.914 26.5469C87.8938 26.2363 87.9357 25.9248 88.0373 25.6305C88.139 25.3363 88.2983 25.0653 88.5059 24.8334C88.7136 24.6016 88.9655 24.4134 89.2467 24.2801C89.528 24.1468 89.8331 24.0709 90.144 24.0569C90.4662 24.0372 90.7871 24.1131 91.0664 24.275C91.3456 24.4369 91.571 24.6776 91.714 24.9669L87.914 26.5469ZM83.294 30.6669H85.164V18.1669H83.294V30.6669ZM80.234 23.3669H80.164C79.8847 23.0488 79.5399 22.7947 79.1533 22.6221C78.7667 22.4495 78.3474 22.3625 77.924 22.3669C76.8312 22.4199 75.8007 22.8913 75.046 23.6835C74.2913 24.4757 73.8704 25.5278 73.8704 26.6219C73.8704 27.716 74.2913 28.7682 75.046 29.5603C75.8007 30.3525 76.8312 30.8239 77.924 30.8769C78.348 30.8854 78.7686 30.8002 79.1558 30.6273C79.543 30.4545 79.8873 30.1982 80.164 29.8769H80.234V30.4869C80.234 32.1169 79.364 32.9869 77.964 32.9869C77.4964 32.9766 77.0423 32.8276 76.6595 32.5588C76.2767 32.2899 75.9824 31.9134 75.814 31.4769L74.194 32.1469C74.4935 32.8992 75.0143 33.5428 75.6874 33.9928C76.3606 34.4427 77.1544 34.6778 77.964 34.6669C80.154 34.6669 81.964 33.3769 81.964 30.2369V22.6669H80.234V23.3669ZM78.084 29.2469C77.4288 29.2061 76.8139 28.917 76.3643 28.4386C75.9148 27.9602 75.6646 27.3284 75.6646 26.6719C75.6646 26.0154 75.9148 25.3837 76.3643 24.9053C76.8139 24.4268 77.4288 24.1378 78.084 24.0969C78.4043 24.1107 78.7185 24.1888 79.0079 24.3266C79.2973 24.4643 79.5561 24.6588 79.7688 24.8986C79.9816 25.1384 80.1439 25.4185 80.2461 25.7223C80.3484 26.0261 80.3885 26.3473 80.364 26.6669C80.3913 26.9876 80.3533 27.3105 80.2522 27.6161C80.1511 27.9216 79.9891 28.2035 79.776 28.4447C79.5629 28.6859 79.303 28.8813 79.0122 29.0192C78.7214 29.1571 78.4057 29.2346 78.084 29.2469ZM102.474 18.1669H97.994V30.6669H99.864V25.9269H102.474C103.007 25.9652 103.542 25.8933 104.046 25.7156C104.55 25.538 105.012 25.2584 105.403 24.8944C105.794 24.5304 106.106 24.0897 106.319 23.5997C106.533 23.1098 106.643 22.5812 106.643 22.0469C106.643 21.5126 106.533 20.984 106.319 20.4941C106.106 20.0042 105.794 19.5635 105.403 19.1994C105.012 18.8354 104.55 18.5558 104.046 18.3782C103.542 18.2005 103.007 18.1286 102.474 18.1669ZM102.474 24.1669H99.864V19.9069H102.514C102.795 19.9069 103.073 19.9623 103.333 20.0698C103.593 20.1774 103.829 20.335 104.027 20.5337C104.226 20.7324 104.384 20.9683 104.491 21.228C104.599 21.4876 104.654 21.7659 104.654 22.0469C104.654 22.3279 104.599 22.6062 104.491 22.8659C104.384 23.1255 104.226 23.3614 104.027 23.5601C103.829 23.7588 103.593 23.9165 103.333 24.024C103.073 24.1316 102.795 24.1869 102.514 24.1869L102.474 24.1669ZM114.014 22.3769C113.333 22.3349 112.655 22.4935 112.063 22.8329C111.471 23.1724 110.992 23.6779 110.684 24.2869L112.334 24.9769C112.501 24.6763 112.751 24.4304 113.054 24.2689C113.358 24.1075 113.702 24.0373 114.044 24.0669C114.281 24.0392 114.522 24.059 114.752 24.1252C114.981 24.1915 115.195 24.3028 115.382 24.4526C115.568 24.6025 115.722 24.7879 115.836 24.9981C115.95 25.2083 116.02 25.4391 116.044 25.6769V25.7969C115.443 25.4808 114.773 25.3161 114.094 25.3169C112.314 25.3169 110.494 26.3169 110.494 28.1369C110.512 28.5238 110.607 28.9031 110.774 29.2525C110.941 29.6018 111.177 29.914 111.467 30.1705C111.757 30.427 112.095 30.6226 112.463 30.7457C112.83 30.8688 113.218 30.9168 113.604 30.8869C114.073 30.9129 114.541 30.8136 114.959 30.5992C115.377 30.3848 115.731 30.063 115.984 29.6669H116.044V30.6669H117.844V25.8569C117.844 23.6669 116.184 22.3969 114.054 22.3969L114.014 22.3769ZM113.784 29.2269C113.174 29.2269 112.324 28.9169 112.324 28.1669C112.324 27.1669 113.384 26.8269 114.324 26.8269C114.918 26.8123 115.505 26.9573 116.024 27.2469C115.961 27.79 115.704 28.2919 115.299 28.6596C114.895 29.0274 114.371 29.236 113.824 29.2469L113.784 29.2269ZM124.404 22.6669L122.264 28.0869H122.204L119.984 22.6669H117.984L121.314 30.2469L119.414 34.4569H121.364L126.484 22.6669H124.404ZM107.604 30.6669H109.464V18.1669H107.604V30.6669Z" fill="white"/>
<path d="M21.384 20.0869L10.734 31.3869C10.8504 31.8143 11.0634 32.2093 11.3566 32.5412C11.6499 32.8732 12.0156 33.1333 12.4253 33.3015C12.8351 33.4696 13.2781 33.5414 13.72 33.5111C14.1619 33.4808 14.591 33.3494 14.974 33.1269L26.974 26.2069L21.384 20.0869Z" fill="#EA4335"/>
<path d="M32.1541 18.167L26.9741 15.167L21.1541 20.357L26.9941 26.207L32.1441 23.207C32.6019 22.9618 32.9845 22.597 33.2513 22.1515C33.5182 21.7059 33.6591 21.1963 33.6591 20.677C33.6591 20.1577 33.5182 19.6481 33.2513 19.2025C32.9845 18.757 32.6019 18.3922 32.1441 18.147L32.1541 18.167Z" fill="#FBBC04"/>
<path d="M10.7341 9.94727C10.6812 10.1835 10.6577 10.4253 10.6641 10.6673V30.6673C10.6659 30.9172 10.6995 31.1659 10.7641 31.4073L21.7641 20.4073L10.7341 9.94727Z" fill="#4285F4"/>
<path d="M21.4641 20.6666L26.9741 15.1566L14.9741 8.21664C14.5233 7.94864 14.0086 7.80701 13.4841 7.80664C12.8515 7.80845 12.2369 8.01781 11.7347 8.40258C11.2325 8.78734 10.8705 9.32627 10.7041 9.93664L21.4641 20.6666Z" fill="#34A853"/>
</g>
<defs>
<clipPath id="clip0_57_820">
<rect width="135" height="40" fill="white" transform="translate(0.664062 0.666992)"/>
</clipPath>
</defs>
</svg>
